<svg width="55" height="55" viewBox="0 0 55 55" fill="none" xmlns="http://www.w3.org/2000/svg">
<circle cx="27.5" cy="27.5" r="27.5" fill="#6D28D9"/>
<path d="M25.1615 21.8843C25.046 22.6885 24.934 23.468 25.0827 24.2345C21.9666 26.9818 13.7381 34.2416 12.9916 34.7784C12.8445 34.8766 12.7197 35.0047 12.6253 35.1543C12.5309 35.3039 12.4691 35.4718 12.4438 35.6468C12.3683 36.1727 12.6171 36.7262 12.8484 37.0499C13.1954 37.5354 14.708 39.4007 15.0741 39.1376C16.1602 38.3465 16.3875 38.1266 16.8323 37.7991C17.5027 37.3082 17.022 36.0394 17.2946 35.5924C17.5672 35.1453 17.7971 35.0837 18.1604 35.0601C18.5236 35.0365 19.112 35.3799 19.5999 35.4563C20.1125 35.5363 20.422 35.3598 20.8571 35.056C21.2073 34.8159 21.4682 34.5819 21.534 34.1683C21.6263 33.6133 20.9279 32.7615 21.6124 32.26C22.2969 31.7585 23.0235 32.8543 23.6713 32.8716C24.3192 32.8889 25.2196 32.1153 25.3543 31.7495C25.4889 31.3837 24.8242 30.2968 25.0271 29.764C25.097 29.5847 25.5366 29.2058 25.8301 29.1848C26.1235 29.1639 27.3154 29.8339 27.6088 29.8129C27.9659 29.7885 28.4205 29.4812 28.7777 29.3242C29.6771 29.8765 30.5254 30.1688 31.6451 30.3297C35.8829 30.9385 39.791 28.1282 40.3758 24.0575C40.9607 19.9868 37.9998 16.2042 33.762 15.5954C29.5243 14.9865 25.7463 17.8136 25.1615 21.8843ZM36.6206 22.0677C36.5644 22.4592 36.3933 22.8253 36.129 23.1196C35.8647 23.4139 35.5191 23.6232 35.1358 23.7211C34.7525 23.8189 34.3488 23.8009 33.9758 23.6694C33.6028 23.5378 33.2771 23.2986 33.04 22.982C32.8029 22.6653 32.6651 22.2855 32.6438 21.8905C32.6226 21.4955 32.719 21.1031 32.9208 20.7629C33.1226 20.4227 33.4208 20.1499 33.7776 19.9792C34.1344 19.8084 34.5338 19.7473 34.9254 19.8036C35.4504 19.879 35.924 20.1599 36.2419 20.5845C36.5598 21.0091 36.6961 21.5426 36.6206 22.0677Z" fill="white"/>
</svg>
