<svg width="201" height="93" viewBox="0 0 201 93" fill="none" xmlns="http://www.w3.org/2000/svg">
<path d="M3.2 74.128C3.2 69.648 3.2 65.1253 3.2 60.56C3.24267 55.9947 3.264 51.5787 3.264 47.312C3.30667 43.0453 3.34933 39.0773 3.392 35.408C3.47733 31.696 3.56267 28.432 3.648 25.616C6.12267 25.616 8.21333 25.6373 9.92 25.68C11.6693 25.7227 13.2267 25.7867 14.592 25.872C14.592 33.2533 14.6347 40.2507 14.72 46.864C20.5227 46.8213 26.3893 46.608 32.32 46.224C32.32 43.0667 32.32 39.7813 32.32 36.368C32.32 32.9547 32.32 29.456 32.32 25.872C36.032 25.616 39.7867 25.488 43.584 25.488C43.712 29.0293 43.8187 32.912 43.904 37.136C43.9893 41.3173 44.032 45.6053 44.032 50C44.0747 54.3947 44.096 58.6613 44.096 62.8C44.1387 66.9387 44.16 70.7147 44.16 74.128C41.9413 74.128 39.8293 74.1067 37.824 74.064C35.8613 74.0213 33.8987 73.9573 31.936 73.872C32.0213 71.568 32.0853 68.624 32.128 65.04C32.1707 61.4133 32.2133 57.36 32.256 52.88C28.288 52.88 24.896 52.8587 22.08 52.816C19.3067 52.7307 16.8747 52.624 14.784 52.496C14.912 60.3893 15.104 67.5147 15.36 73.872C13.4827 73.9573 11.5627 74.0213 9.6 74.064C7.63733 74.1067 5.504 74.128 3.2 74.128ZM67.535 74.32C64.079 74.32 60.9643 73.5307 58.191 71.952C55.4603 70.3307 53.2843 68.1547 51.663 65.424C50.0843 62.6507 49.295 59.5147 49.295 56.016C49.295 52.5173 50.063 49.4027 51.599 46.672C53.1777 43.9413 55.311 41.7867 57.999 40.208C60.7297 38.6293 63.823 37.84 67.279 37.84C70.5217 37.84 73.423 38.5653 75.983 40.016C78.5857 41.424 80.6763 43.408 82.255 45.968C83.8763 48.528 84.8363 51.536 85.135 54.992L59.727 59.728C60.5377 62.5013 61.8177 64.7627 63.567 66.512C65.3163 68.2187 67.279 69.072 69.455 69.072C71.4603 69.072 73.4443 68.3893 75.407 67.024C77.3697 65.616 78.8843 63.824 79.951 61.648L84.495 65.488C82.4043 68.304 79.887 70.48 76.943 72.016C73.999 73.552 70.863 74.32 67.535 74.32ZM58.895 53.456C58.895 53.712 58.895 53.9253 58.895 54.096L73.807 52.048C73.5083 49.3173 72.6337 47.12 71.183 45.456C69.7323 43.792 67.9617 42.96 65.871 42.96C63.695 42.96 61.9883 43.8987 60.751 45.776C59.5137 47.6107 58.895 50.1707 58.895 53.456ZM91.22 74.128C91.22 67.3867 91.284 61.52 91.412 56.528C91.54 51.536 91.8173 47.248 92.244 43.664H86.804L86.42 37.776H93.14C93.908 34.2773 94.996 31.632 96.404 29.84C97.812 28.0053 99.6467 26.7467 101.908 26.064C104.212 25.3387 107.049 24.8907 110.42 24.72L110.164 30.16C108.159 30.16 106.601 30.672 105.492 31.696C104.425 32.72 103.636 34.7467 103.124 37.776H110.74L110.356 43.664H102.484C102.356 45.584 102.271 47.7813 102.228 50.256C102.185 52.7307 102.164 55.5253 102.164 58.64C102.164 61.3707 102.185 63.9947 102.228 66.512C102.271 69.0293 102.335 71.4827 102.42 73.872C100.628 73.9147 98.7293 73.9573 96.724 74C94.7187 74.0853 92.884 74.128 91.22 74.128ZM126.868 25.552C126.783 27.984 126.719 30.3733 126.676 32.72C126.633 35.0667 126.612 37.2427 126.612 39.248C126.612 45.9893 126.804 51.5147 127.188 55.824C127.615 60.0907 128.255 63.376 129.108 65.68C129.961 67.9413 131.092 69.4347 132.5 70.16L128.02 75.28C125.716 75.024 123.775 74.2773 122.196 73.04C120.66 71.76 119.423 69.8613 118.484 67.344C117.545 64.784 116.863 61.4773 116.436 57.424C116.052 53.3707 115.86 48.4213 115.86 42.576C115.86 40.144 115.881 37.4987 115.924 34.64C116.009 31.7387 116.095 28.7947 116.18 25.808C117.417 25.7227 118.889 25.6587 120.596 25.616C122.303 25.5733 124.393 25.552 126.868 25.552ZM149.317 74.32C139.802 74.32 135.045 65.6373 135.045 48.272C135.045 45.3707 135.173 42.256 135.429 38.928C136.453 38.8427 137.84 38.7787 139.589 38.736C141.381 38.6933 143.664 38.672 146.437 38.672C146.181 42.9387 146.053 46.736 146.053 50.064C146.053 56.6347 146.565 61.4773 147.589 64.592C148.656 67.664 150.277 69.2 152.453 69.2C153.904 69.2 155.354 68.6027 156.805 67.408C158.298 66.2133 159.578 64.6347 160.645 62.672C160.602 59.3013 160.56 55.5253 160.517 51.344C160.517 47.12 160.517 42.7893 160.517 38.352C162.266 38.352 164.186 38.3733 166.277 38.416C168.41 38.4587 170.16 38.5227 171.525 38.608C171.525 42.064 171.504 45.5627 171.461 49.104C171.461 52.6453 171.44 56.0373 171.397 59.28C171.397 62.5227 171.376 65.424 171.333 67.984C171.29 70.5013 171.248 72.464 171.205 73.872C169.541 73.9573 167.813 74.0213 166.021 74.064C164.229 74.1067 162.501 74.128 160.837 74.128C160.794 73.104 160.752 71.7813 160.709 70.16C157.04 72.9333 153.242 74.32 149.317 74.32Z" fill="#1E1E1E"/>
<circle cx="189" cy="62" r="12" fill="#6D28D9"/>
<path d="M164.162 17.8843C164.046 18.6885 163.934 19.468 164.083 20.2345C160.967 22.9818 152.738 30.2416 151.992 30.7784C151.844 30.8766 151.72 31.0047 151.625 31.1543C151.531 31.3039 151.469 31.4718 151.444 31.6468C151.368 32.1727 151.617 32.7262 151.848 33.0499C152.195 33.5354 153.708 35.4007 154.074 35.1376C155.16 34.3465 155.387 34.1266 155.832 33.7991C156.503 33.3082 156.022 32.0394 156.295 31.5924C156.567 31.1453 156.797 31.0837 157.16 31.0601C157.524 31.0365 158.112 31.3799 158.6 31.4563C159.112 31.5363 159.422 31.3598 159.857 31.056C160.207 30.8159 160.468 30.5819 160.534 30.1683C160.626 29.6133 159.928 28.7615 160.612 28.26C161.297 27.7585 162.023 28.8543 162.671 28.8716C163.319 28.8889 164.22 28.1153 164.354 27.7495C164.489 27.3837 163.824 26.2968 164.027 25.764C164.097 25.5847 164.537 25.2058 164.83 25.1848C165.124 25.1639 166.315 25.8339 166.609 25.8129C166.966 25.7885 167.421 25.4812 167.778 25.3242C168.677 25.8765 169.525 26.1688 170.645 26.3297C174.883 26.9385 178.791 24.1282 179.376 20.0575C179.961 15.9868 177 12.2042 172.762 11.5954C168.524 10.9865 164.746 13.8136 164.162 17.8843ZM175.621 18.0677C175.564 18.4592 175.393 18.8253 175.129 19.1196C174.865 19.4139 174.519 19.6232 174.136 19.7211C173.753 19.8189 173.349 19.8009 172.976 19.6694C172.603 19.5378 172.277 19.2986 172.04 18.982C171.803 18.6653 171.665 18.2855 171.644 17.8905C171.623 17.4955 171.719 17.1031 171.921 16.7629C172.123 16.4227 172.421 16.1499 172.778 15.9792C173.134 15.8084 173.534 15.7473 173.925 15.8036C174.45 15.879 174.924 16.1599 175.242 16.5845C175.56 17.0091 175.696 17.5426 175.621 18.0677Z" fill="#1E1E1E"/>
</svg>
